<svg width="50" height="70" viewBox="0 0 50 70" fill="none" xmlns="http://www.w3.org/2000/svg">
<path d="M21 24.7163V23H29V24.7163H21ZM24 37.503H26V30.9237H24V37.503ZM25 47C23.3556 47 21.8056 46.7282 20.35 46.1847C18.8944 45.6412 17.6222 44.9023 16.5333 43.9678C15.4444 43.0334 14.5833 41.9416 13.95 40.6925C13.3167 39.4434 13 38.1132 13 36.702C13 35.2908 13.3167 33.9607 13.95 32.7116C14.5833 31.4625 15.4444 30.3707 16.5333 29.4362C17.6222 28.5018 18.8944 27.7628 20.35 27.2193C21.8056 26.6758 23.3556 26.4041 25 26.4041C26.4889 26.4041 27.8889 26.6186 29.2 27.0477C30.5111 27.4768 31.6778 28.0727 32.7 28.8355L34.4 27.3766L35.8 28.5781L34.1 30.0369C34.9 30.7998 35.5833 31.7247 36.15 32.8117C36.7167 33.8987 37 35.1955 37 36.702C37 38.1132 36.6833 39.4434 36.05 40.6925C35.4167 41.9416 34.5556 43.0334 33.4667 43.9678C32.3778 44.9023 31.1056 45.6412 29.65 46.1847C28.1944 46.7282 26.6444 47 25 47ZM25 45.2837C27.7778 45.2837 30.1389 44.4493 32.0833 42.7807C34.0278 41.112 35 39.0858 35 36.702C35 34.3182 34.0278 32.292 32.0833 30.6234C30.1389 28.9547 27.7778 28.1204 25 28.1204C22.2222 28.1204 19.8611 28.9547 17.9167 30.6234C15.9722 32.292 15 34.3182 15 36.702C15 39.0858 15.9722 41.112 17.9167 42.7807C19.8611 44.4493 22.2222 45.2837 25 45.2837Z" fill="#D9D9D9"/>
</svg>
