<svg width="70" height="70" viewBox="0 0 70 70" fill="none" xmlns="http://www.w3.org/2000/svg">
<g filter="url(#filter0_d_84_955)">
<path fill-rule="evenodd" clip-rule="evenodd" d="M31 60C44.8071 60 56 48.8071 56 35C56 21.1929 44.8071 10 31 10C17.1929 10 6 21.1929 6 35C6 48.8071 17.1929 60 31 60ZM31 22.8571C37.7064 22.8571 43.1429 28.2936 43.1429 35C43.1429 41.7063 37.7064 47.1428 31 47.1428C24.2937 47.1428 18.8572 41.7063 18.8572 35C18.8572 28.2936 24.2937 22.8571 31 22.8571Z" fill="url(#paint0_linear_84_955)"/>
</g>
<defs>
<filter id="filter0_d_84_955" x="0" y="0" width="70" height="70" filterUnits="userSpaceOnUse" color-interpolation-filters="sRGB">
<feFlood flood-opacity="0" result="BackgroundImageFix"/>
<feColorMatrix in="SourceAlpha" type="matrix" values="0 0 0 0 0 0 0 0 0 0 0 0 0 0 0 0 0 0 127 0" result="hardAlpha"/>
<feOffset dx="4"/>
<feGaussianBlur stdDeviation="5"/>
<feComposite in2="hardAlpha" operator="out"/>
<feColorMatrix type="matrix" values="0 0 0 0 0 0 0 0 0 0 0 0 0 0 0 0 0 0 0.2 0"/>
<feBlend mode="normal" in2="BackgroundImageFix" result="effect1_dropShadow_84_955"/>
<feBlend mode="normal" in="SourceGraphic" in2="effect1_dropShadow_84_955" result="shape"/>
</filter>
<linearGradient id="paint0_linear_84_955" x1="6" y1="10" x2="44.5714" y2="60" gradientUnits="userSpaceOnUse">
<stop stop-color="#51FF82"/>
<stop offset="1" stop-color="#0BD1FD"/>
</linearGradient>
</defs>
</svg>
