<svg width="393" height="852" viewBox="0 0 393 852" fill="none" xmlns="http://www.w3.org/2000/svg">
<rect width="393" height="852" fill="url(#paint0_linear_84_1335)"/>
<g filter="url(#filter0_i_84_1335)">
<path d="M197 435.726C193.314 435.726 190.229 434.425 187.743 431.821C185.257 429.218 184.014 426.056 184.014 422.337V390.632C184.014 387.123 185.276 384.14 187.8 381.684C190.323 379.228 193.387 378 196.992 378C200.597 378 203.664 379.228 206.193 381.684C208.721 384.14 209.986 387.123 209.986 390.632V422.337C209.986 426.056 208.743 429.218 206.257 431.821C203.771 434.425 200.686 435.726 197 435.726ZM193.143 474V456.821C184.057 455.895 176.429 452.147 170.257 445.579C164.086 439.011 161 431.263 161 422.337H168.714C168.714 430 171.469 436.442 176.98 441.663C182.49 446.884 189.155 449.495 196.973 449.495C204.791 449.495 211.464 446.884 216.993 441.663C222.521 436.442 225.286 430 225.286 422.337H233C233 431.263 229.914 439.011 223.743 445.579C217.571 452.147 209.943 455.895 200.857 456.821V474H193.143ZM197 428.147C198.543 428.147 199.807 427.579 200.793 426.442C201.779 425.305 202.271 423.937 202.271 422.337V390.632C202.271 389.2 201.766 388 200.756 387.032C199.746 386.063 198.494 385.579 197 385.579C195.506 385.579 194.254 386.063 193.244 387.032C192.234 388 191.729 389.2 191.729 390.632V422.337C191.729 423.937 192.221 425.305 193.207 426.442C194.193 427.579 195.457 428.147 197 428.147Z" fill="url(#paint1_linear_84_1335)"/>
</g>
<path d="M38.8599 20.7065C39.5516 20.7065 40.1963 20.8338 40.7939 21.0884C41.3971 21.3374 41.9229 21.7165 42.3711 22.2256C42.8249 22.7292 43.1763 23.3711 43.4253 24.1514C43.6799 24.9261 43.8071 25.8392 43.8071 26.8906V26.9072C43.8071 28.2464 43.6051 29.3919 43.2012 30.3438C42.8027 31.2956 42.2327 32.026 41.4912 32.5352C40.7497 33.0443 39.867 33.2988 38.8433 33.2988C38.0741 33.2988 37.3796 33.1605 36.7598 32.8838C36.14 32.6016 35.6281 32.217 35.2241 31.73C34.8257 31.2375 34.5628 30.6785 34.4355 30.0532L34.4189 29.9785H36.876L36.9009 30.0532C37.0005 30.2967 37.1388 30.5153 37.3159 30.709C37.4985 30.8971 37.7171 31.0438 37.9717 31.1489C38.2262 31.2541 38.514 31.3066 38.835 31.3066C39.416 31.3066 39.8919 31.1351 40.2627 30.792C40.6335 30.4434 40.9129 29.9757 41.1011 29.3892C41.2892 28.8026 41.3971 28.1468 41.4248 27.4219C41.4303 27.3389 41.4331 27.2559 41.4331 27.1729C41.4331 27.0898 41.4331 27.0096 41.4331 26.9321L41.0513 24.9233C41.0513 24.5028 40.9544 24.1265 40.7607 23.7944C40.5671 23.4569 40.307 23.1912 39.9805 22.9976C39.654 22.7983 39.286 22.6987 38.8765 22.6987C38.4725 22.6987 38.1045 22.7956 37.7725 22.9893C37.446 23.1774 37.1831 23.4375 36.9839 23.7695C36.7902 24.096 36.6934 24.464 36.6934 24.8735V24.8901C36.6934 25.3107 36.7874 25.6842 36.9756 26.0107C37.1637 26.3372 37.4211 26.5946 37.7476 26.7827C38.0741 26.9653 38.4448 27.0566 38.8599 27.0566C39.2749 27.0566 39.6457 26.9681 39.9722 26.791C40.3042 26.6084 40.5671 26.3566 40.7607 26.0356C40.9544 25.7147 41.0513 25.3494 41.0513 24.9399V24.9233H41.5493V27.1562H41.2588C41.1204 27.4606 40.9129 27.7484 40.6362 28.0195C40.3651 28.2852 40.0247 28.501 39.6152 28.667C39.2057 28.8275 38.7243 28.9077 38.1709 28.9077C37.3962 28.9077 36.7155 28.7389 36.1289 28.4014C35.5423 28.0583 35.0858 27.5907 34.7593 26.9985C34.4328 26.4064 34.2695 25.734 34.2695 24.9814V24.9648C34.2695 24.1458 34.4632 23.4154 34.8506 22.7734C35.2435 22.1315 35.7858 21.6279 36.4775 21.2627C37.1693 20.8919 37.9634 20.7065 38.8599 20.7065ZM47.6587 31.4478C47.2381 31.4478 46.8895 31.3094 46.6128 31.0327C46.3361 30.756 46.1978 30.4129 46.1978 30.0034C46.1978 29.5939 46.3361 29.2536 46.6128 28.9824C46.8895 28.7057 47.2381 28.5674 47.6587 28.5674C48.0903 28.5674 48.4417 28.7057 48.7129 28.9824C48.984 29.2536 49.1196 29.5939 49.1196 30.0034C49.1196 30.4129 48.984 30.756 48.7129 31.0327C48.4417 31.3094 48.0903 31.4478 47.6587 31.4478ZM47.6587 25.438C47.2381 25.438 46.8895 25.2996 46.6128 25.0229C46.3361 24.7463 46.1978 24.4032 46.1978 23.9937C46.1978 23.5841 46.3361 23.2438 46.6128 22.9727C46.8895 22.696 47.2381 22.5576 47.6587 22.5576C48.0903 22.5576 48.4417 22.696 48.7129 22.9727C48.984 23.2438 49.1196 23.5841 49.1196 23.9937C49.1196 24.4032 48.984 24.7463 48.7129 25.0229C48.4417 25.2996 48.0903 25.438 47.6587 25.438ZM57.3789 33V30.8003H51.5103V28.833C51.8146 28.2907 52.1217 27.7539 52.4316 27.2227C52.7415 26.6859 53.0542 26.1546 53.3696 25.6289C53.6906 25.0977 54.0088 24.5747 54.3242 24.0601C54.6452 23.5399 54.9661 23.028 55.2871 22.5244C55.6081 22.0153 55.929 21.5145 56.25 21.022H59.7695V28.7915H61.3301V30.8003H59.7695V33H57.3789ZM53.7681 28.8579H57.4287V22.9229H57.2959C57.0635 23.2826 56.8255 23.6506 56.582 24.0269C56.3441 24.4032 56.1034 24.7878 55.8599 25.1807C55.6219 25.5736 55.3812 25.9692 55.1377 26.3677C54.8997 26.7606 54.6646 27.1562 54.4321 27.5547C54.2052 27.9476 53.9839 28.3377 53.7681 28.7251V28.8579ZM66.2275 33V23.3877H66.0781L63.1396 25.4297V23.1719L66.2358 21.022H68.7344V33H66.2275Z" fill="black"/>
<path d="M358.12 24C358.29 24 358.433 24.0575 358.548 24.1725C358.663 24.2875 358.72 24.43 358.72 24.6L358.72 26.4L359.4 26.4C359.57 26.4 359.713 26.4575 359.828 26.5725C359.943 26.6875 360 26.83 360 27L360 29C360 29.17 359.943 29.3125 359.828 29.4275C359.713 29.5425 359.57 29.6 359.4 29.6L358.72 29.6L358.72 31.4C358.72 31.57 358.662 31.7125 358.548 31.8275C358.433 31.9425 358.29 32 358.12 32L344.6 32C344.43 32 344.287 31.9425 344.172 31.8275C344.057 31.7125 344 31.57 344 31.4L344 24.6C344 24.43 344.057 24.2875 344.172 24.1725C344.287 24.0575 344.43 24 344.6 24L358.12 24ZM357.52 25.2L351.36 25.2L351.36 30.8L357.52 30.8L357.52 25.2Z" fill="black"/>
<path d="M322.355 27.1707C323.106 26.6327 323.906 26.2156 324.755 25.9192C325.603 25.6228 326.518 25.4746 327.5 25.4746C328.482 25.4746 329.4 25.6228 330.254 25.9192C331.109 26.2156 331.912 26.6327 332.663 27.1707L334.627 25.3922C333.572 24.6457 332.454 24.0584 331.273 23.6302C330.091 23.2021 328.833 22.988 327.5 22.988C326.167 22.988 324.909 23.2021 323.727 23.6302C322.546 24.0584 321.428 24.6457 320.373 25.3922L322.355 27.1707ZM327.5 33C327.427 33 327.361 32.989 327.3 32.9671C327.239 32.9451 327.179 32.9067 327.118 32.8518L319.155 25.6392C319.046 25.5404 318.994 25.4251 319 25.2934C319.007 25.1617 319.064 25.0519 319.173 24.9641C320.325 24.0419 321.606 23.3174 323.018 22.7904C324.43 22.2635 325.924 22 327.5 22C329.076 22 330.57 22.2635 331.982 22.7904C333.394 23.3174 334.675 24.0419 335.827 24.9641C335.936 25.0519 335.993 25.1617 336 25.2934C336.006 25.4251 335.954 25.5404 335.845 25.6392L327.882 32.8518C327.821 32.9067 327.761 32.9451 327.7 32.9671C327.639 32.989 327.573 33 327.5 33Z" fill="black"/>
<path fill-rule="evenodd" clip-rule="evenodd" d="M308.4 22C307.737 22 307.2 22.5373 307.2 23.2V31.8C307.2 32.4627 307.737 33 308.4 33C309.063 33 309.6 32.4627 309.6 31.8V23.2C309.6 22.5373 309.063 22 308.4 22ZM302.8 25.95C302.8 25.2873 303.337 24.75 304 24.75C304.663 24.75 305.2 25.2873 305.2 25.95V31.8C305.2 32.4627 304.663 33 304 33C303.337 33 302.8 32.4627 302.8 31.8V25.95ZM299.6 27.5C298.937 27.5 298.4 28.0373 298.4 28.7V31.8C298.4 32.4627 298.937 33 299.6 33C300.263 33 300.8 32.4627 300.8 31.8V28.7C300.8 28.0373 300.263 27.5 299.6 27.5ZM295.2 30C294.537 30 294 30.5373 294 31.2V31.8C294 32.4627 294.537 33 295.2 33C295.863 33 296.4 32.4627 296.4 31.8V31.2C296.4 30.5373 295.863 30 295.2 30Z" fill="black"/>
<defs>
<filter id="filter0_i_84_1335" x="161" y="378" width="72" height="99" filterUnits="userSpaceOnUse" color-interpolation-filters="sRGB">
<feFlood flood-opacity="0" result="BackgroundImageFix"/>
<feBlend mode="normal" in="SourceGraphic" in2="BackgroundImageFix" result="shape"/>
<feColorMatrix in="SourceAlpha" type="matrix" values="0 0 0 0 0 0 0 0 0 0 0 0 0 0 0 0 0 0 127 0" result="hardAlpha"/>
<feOffset dy="3"/>
<feGaussianBlur stdDeviation="5"/>
<feComposite in2="hardAlpha" operator="arithmetic" k2="-1" k3="1"/>
<feColorMatrix type="matrix" values="0 0 0 0 0 0 0 0 0 0 0 0 0 0 0 0 0 0 0.1 0"/>
<feBlend mode="normal" in2="shape" result="effect1_innerShadow_84_1335"/>
</filter>
<linearGradient id="paint0_linear_84_1335" x1="-19.5" y1="3.33878e-06" x2="509.5" y2="852" gradientUnits="userSpaceOnUse">
<stop stop-color="#51FF82" stop-opacity="0.81"/>
<stop offset="1" stop-color="#0BD1FD" stop-opacity="0.83"/>
</linearGradient>
<linearGradient id="paint1_linear_84_1335" x1="197.364" y1="493.273" x2="197.364" y2="378" gradientUnits="userSpaceOnUse">
<stop stop-color="#00FF47"/>
<stop offset="1" stop-color="#17C8EF"/>
</linearGradient>
</defs>
</svg>
