<svg width="50" height="70" viewBox="0 0 50 70" fill="none" xmlns="http://www.w3.org/2000/svg">
<path d="M29.8 45.6C29.14 45.6 28.575 45.365 28.105 44.895C27.635 44.425 27.4 43.86 27.4 43.2V38.4C27.4 37.74 27.635 37.175 28.105 36.705C28.575 36.235 29.14 36 29.8 36H34.6C35.26 36 35.825 36.235 36.295 36.705C36.765 37.175 37 37.74 37 38.4V43.2C37 43.86 36.765 44.425 36.295 44.895C35.825 45.365 35.26 45.6 34.6 45.6H29.8ZM29.2 43.8H35.2V37.8H29.2V43.8ZM13 41.7V39.9H23.8V41.7H13ZM29.8 33.6C29.14 33.6 28.575 33.365 28.105 32.895C27.635 32.425 27.4 31.86 27.4 31.2V26.4C27.4 25.74 27.635 25.175 28.105 24.705C28.575 24.235 29.14 24 29.8 24H34.6C35.26 24 35.825 24.235 36.295 24.705C36.765 25.175 37 25.74 37 26.4V31.2C37 31.86 36.765 32.425 36.295 32.895C35.825 33.365 35.26 33.6 34.6 33.6H29.8ZM29.2 31.8H35.2V25.8H29.2V31.8ZM13 29.7V27.9H23.8V29.7H13Z" fill="#D9D9D9"/>
</svg>
